REM DIRINDEX 1\2\6,1\2\7,1\2\8,1\2\9,1\3\10,1\3\11,1\4\12,1\4\13,1\4\14,1\5\15,1\5\16,1\5\17
REM DIRNAME cjc029,folder01,folder02,folder03,folder04,folder05,folder06,folder07,folder08,folder09,folder10,folder11,folder12,folder13,folder14,folder15,folder16
TITLE ""
FILE "1400_2_sec02_0150_0165.mp3" MP3
  TRACK 01 AUDIO
    TITLE "0:"
    INDEX 01 00:00:00
  TRACK 02 AUDIO
    TITLE "13:cjc029_1869"
    INDEX 01 00:00:21
  TRACK 03 AUDIO
    TITLE "0:"
    INDEX 01 00:01:44
  TRACK 04 AUDIO
    TITLE "14:cjc029_1870"
    INDEX 01 00:01:48
  TRACK 05 AUDIO
    TITLE "0:"
    INDEX 01 00:03:66
  TRACK 06 AUDIO
    TITLE "13:cjc029_1871"
    INDEX 01 00:04:48
  TRACK 07 AUDIO
    TITLE "0:"
    INDEX 01 00:05:61
  TRACK 08 AUDIO
    TITLE "14:cjc029_1872"
    INDEX 01 00:05:67
  TRACK 09 AUDIO
    TITLE "0:"
    INDEX 01 00:08:19
  TRACK 10 AUDIO
    TITLE "13:cjc029_1873"
    INDEX 01 00:09:00
  TRACK 11 AUDIO
    TITLE "0:"
    INDEX 01 00:10:25
  TRACK 12 AUDIO
    TITLE "14:cjc029_1874"
    INDEX 01 00:10:31
  TRACK 13 AUDIO
    TITLE "0:"
    INDEX 01 00:14:23
  TRACK 14 AUDIO
    TITLE "13:cjc029_1875"
    INDEX 01 00:15:03
  TRACK 15 AUDIO
    TITLE "0:"
    INDEX 01 00:16:40
  TRACK 16 AUDIO
    TITLE "14:cjc029_1876"
    INDEX 01 00:16:46
  TRACK 17 AUDIO
    TITLE "0:"
    INDEX 01 00:17:63
  TRACK 18 AUDIO
    TITLE "13:cjc029_1877"
    INDEX 01 00:18:44
  TRACK 19 AUDIO
    TITLE "0:"
    INDEX 01 00:19:58
  TRACK 20 AUDIO
    TITLE "14:cjc029_1878"
    INDEX 01 00:19:65
  TRACK 21 AUDIO
    TITLE "0:"
    INDEX 01 00:22:15
  TRACK 22 AUDIO
    TITLE "13:cjc029_1879"
    INDEX 01 00:22:72
  TRACK 23 AUDIO
    TITLE "0:"
    INDEX 01 00:24:12
  TRACK 24 AUDIO
    TITLE "14:cjc029_1880"
    INDEX 01 00:24:18
  TRACK 25 AUDIO
    TITLE "0:"
    INDEX 01 00:27:36
  TRACK 26 AUDIO
    TITLE "13:cjc029_1881"
    INDEX 01 00:28:17
  TRACK 27 AUDIO
    TITLE "0:"
    INDEX 01 00:29:46
  TRACK 28 AUDIO
    TITLE "14:cjc029_1882"
    INDEX 01 00:29:56
  TRACK 29 AUDIO
    TITLE "0:"
    INDEX 01 00:33:07
  TRACK 30 AUDIO
    TITLE "13:cjc029_1883"
    INDEX 01 00:33:64
  TRACK 31 AUDIO
    TITLE "0:"
    INDEX 01 00:35:08
  TRACK 32 AUDIO
    TITLE "14:cjc029_1884"
    INDEX 01 00:35:17
  TRACK 33 AUDIO
    TITLE "0:"
    INDEX 01 00:36:23
  TRACK 34 AUDIO
    TITLE "13:cjc029_1885"
    INDEX 01 00:37:05
  TRACK 35 AUDIO
    TITLE "0:"
    INDEX 01 00:38:10
  TRACK 36 AUDIO
    TITLE "14:cjc029_1886"
    INDEX 01 00:38:14
  TRACK 37 AUDIO
    TITLE "0:"
    INDEX 01 00:40:46
  TRACK 38 AUDIO
    TITLE "13:cjc029_1887"
    INDEX 01 00:41:34
  TRACK 39 AUDIO
    TITLE "0:"
    INDEX 01 00:42:37
  TRACK 40 AUDIO
    TITLE "14:cjc029_1888"
    INDEX 01 00:42:41
  TRACK 41 AUDIO
    TITLE "0:"
    INDEX 01 00:44:50
  TRACK 42 AUDIO
    TITLE "13:cjc029_1889"
    INDEX 01 00:45:32
  TRACK 43 AUDIO
    TITLE "0:"
    INDEX 01 00:46:41
  TRACK 44 AUDIO
    TITLE "14:cjc029_1890"
    INDEX 01 00:46:45
  TRACK 45 AUDIO
    TITLE "0:"
    INDEX 01 00:51:38
  TRACK 46 AUDIO
    TITLE "13:cjc029_1891"
    INDEX 01 00:52:20
  TRACK 47 AUDIO
    TITLE "0:"
    INDEX 01 00:53:39
  TRACK 48 AUDIO
    TITLE "14:cjc029_1892"
    INDEX 01 00:53:43
  TRACK 49 AUDIO
    TITLE "0:"
    INDEX 01 00:55:55
  TRACK 50 AUDIO
    TITLE "13:cjc029_1893"
    INDEX 01 00:56:41
  TRACK 51 AUDIO
    TITLE "0:"
    INDEX 01 00:57:45
  TRACK 52 AUDIO
    TITLE "14:cjc029_1894"
    INDEX 01 00:57:50
  TRACK 53 AUDIO
    TITLE "0:"
    INDEX 01 01:02:01
  TRACK 54 AUDIO
    TITLE "13:cjc029_1895"
    INDEX 01 01:02:55
  TRACK 55 AUDIO
    TITLE "0:"
    INDEX 01 01:04:00
  TRACK 56 AUDIO
    TITLE "14:cjc029_1896"
    INDEX 01 01:04:05
  TRACK 57 AUDIO
    TITLE "0:"
    INDEX 01 01:06:26
  TRACK 58 AUDIO
    TITLE "13:cjc029_1897"
    INDEX 01 01:07:06
  TRACK 59 AUDIO
    TITLE "0:"
    INDEX 01 01:08:15
  TRACK 60 AUDIO
    TITLE "14:cjc029_1898"
    INDEX 01 01:08:17
  TRACK 61 AUDIO
    TITLE "0:"
    INDEX 01 01:11:47
  TRACK 62 AUDIO
    TITLE "13:cjc029_1899"
    INDEX 01 01:12:30
  TRACK 63 AUDIO
    TITLE "0:"
    INDEX 01 01:13:51
  TRACK 64 AUDIO
    TITLE "14:cjc029_1900"
    INDEX 01 01:13:55
  TRACK 65 AUDIO
    TITLE "0:"
    INDEX 01 01:14:61
